<svg width="72" height="72" viewBox="0 0 72 72" fill="none" xmlns="http://www.w3.org/2000/svg">
<path d="M72 62C72 67.524 67.524 72 62 72H10C4.478 72 0 67.524 0 62V10C0 4.476 4.478 0 10 0H62C67.524 0 72 4.476 72 10V62Z" fill="#0078D4"/>
<path opacity="0.05" d="M48 62V41.802C48 38.424 46.362 36.406 43.616 36.406C41.986 36.406 40.788 37.324 40.058 39.134C40.024 39.262 39.976 39.784 39.996 41.362L40 62H26V24H40V26.122C42.044 24.712 44.55 24 47.476 24C56.57 24 61.998 30.186 61.998 40.548L62 62H48ZM10 62V24H16.914C12.908 24 10 21.056 10 16.998C10 12.944 12.956 10 17.028 10C21.052 10 23.918 12.862 24 16.958C24 21.046 21.042 24 16.97 24H24V62H10Z" fill="black"/>
<path opacity="0.07" d="M49 61V41.802C49 37.856 46.938 35.406 43.616 35.406C41.026 35.406 39.746 37.23 39.13 38.76C38.966 39.158 38.988 40.738 38.996 41.412L39 61H27V25H39V28.276C40.59 26.63 43.15 25 47.476 25C55.942 25 60.998 30.812 60.998 40.548L61 61H49ZM11 61V25H23V61H11ZM16.914 23C13.488 23 11 20.476 11 16.998C11 13.522 13.536 11 17.028 11C20.476 11 22.93 13.458 23 16.978C23 20.476 20.464 23 16.97 23H16.914Z" fill="black"/>
<path d="M12 26H22V60H12V26ZM16.97 22H16.914C13.93 22 12 19.776 12 16.998C12 14.16 13.99 12 17.028 12C20.07 12 21.944 14.16 22 16.998C22 19.774 20.07 22 16.97 22ZM60 60H50V41.802C50 37.406 47.55 34.406 43.616 34.406C40.614 34.406 38.99 36.43 38.202 38.386C37.914 39.086 38 41.022 38 42V60H28V26H38V31.232C39.442 29 41.7 26 47.476 26C54.632 26 59.998 30.5 59.998 40.548L60 60Z" fill="white"/>
</svg>
